# xmcd
#
# Track frame offsets: 
#        150
#        24360
#        55425
#        82015
#        99902
#        129017
#        156850
#        167362
#        191102
#        215777
#        238562
#        270415
#
# Disc length: 3683 seconds
#
# Revision: 3
# Processed by: cddbd v1.5.1PL0 Copyright (c) Steve Scherf et al.
# Submitted via: ExactAudioCopy v0.95a4
#
DISCID=970e610c
DTITLE=Bobby Watson - Tailor Made
DYEAR=1993
DGENRE=Jazz
TTITLE0=Ms. B.C.
TTITLE1=Old Time Ways
TTITLE2=Catch Me if You Can (Jazz Mambo)
TTITLE3=Lafiya
TTITLE4=Tudo Bem (All is Okay)
TTITLE5=Conservation
TTITLE6=T.P. Call Home
TTITLE7=Like it was Before
TTITLE8=Free Yourself
TTITLE9=To See Her Face
TTITLE10=The Thing's You Do
TTITLE11=What's Next
EXTD=YEAR: 1993
EXTT0=
EXTT1=
EXTT2=
EXTT3=
EXTT4=
EXTT5=
EXTT6=
EXTT7=
EXTT8=
EXTT9=
EXTT10=
EXTT11=
PLAYORDER=
